<svg xmlns="http://www.w3.org/2000/svg" xmlns:xlink="http://www.w3.org/1999/xlink" width="1920" height="1080" viewBox="0 0 1920 1080">
  <defs>
    <clipPath id="clip-path">
      <rect id="Rectangle_86" data-name="Rectangle 86" width="1922" height="1077" rx="3.5" transform="translate(1922 1076.576) rotate(180)" fill="none"/>
    </clipPath>
    <radialGradient id="radial-gradient" cx="80.583" cy="-0.047" r="0.518" gradientTransform="matrix(106.774, -0.707, 106.774, 0.707, -12271.729, 81.832)" gradientUnits="objectBoundingBox">
      <stop offset="0" stop-color="#161212" stop-opacity="0"/>
      <stop offset="1" stop-color="#161212"/>
    </radialGradient>
    <radialGradient id="radial-gradient-2" cx="75.635" cy="-0.014" r="0.518" gradientTransform="matrix(106.777, -0.707, 106.772, 0.707, -11531.552, 76.88)" xlink:href="#radial-gradient"/>
    <radialGradient id="radial-gradient-3" cx="70.685" cy="0.019" r="0.518" gradientTransform="matrix(106.777, -0.707, 106.772, 0.707, -10791.111, 71.93)" xlink:href="#radial-gradient"/>
    <radialGradient id="radial-gradient-4" cx="65.734" cy="0.051" r="0.518" gradientTransform="matrix(106.774, -0.707, 106.774, 0.707, -10050.438, 66.982)" xlink:href="#radial-gradient"/>
    <radialGradient id="radial-gradient-5" cx="60.785" cy="0.084" r="0.518" gradientTransform="matrix(106.775, -0.707, 106.775, 0.707, -9310.226, 62.033)" xlink:href="#radial-gradient"/>
    <radialGradient id="radial-gradient-6" cx="55.836" cy="0.117" r="0.518" gradientTransform="matrix(106.777, -0.707, 106.772, 0.707, -8569.79, 57.081)" xlink:href="#radial-gradient"/>
    <radialGradient id="radial-gradient-7" cx="50.885" cy="0.15" r="0.518" gradientTransform="matrix(106.775, -0.707, 106.775, 0.707, -7829.351, 52.134)" xlink:href="#radial-gradient"/>
    <radialGradient id="radial-gradient-8" cx="45.935" cy="0.183" r="0.518" gradientTransform="matrix(106.774, -0.707, 106.774, 0.707, -7088.734, 47.183)" xlink:href="#radial-gradient"/>
    <radialGradient id="radial-gradient-9" cx="40.986" cy="0.215" r="0.518" gradientTransform="matrix(106.777, -0.707, 106.772, 0.707, -6348.458, 42.232)" xlink:href="#radial-gradient"/>
    <radialGradient id="radial-gradient-10" cx="36.036" cy="0.248" r="0.518" gradientTransform="matrix(106.776, -0.707, 106.771, 0.707, -5607.989, 37.283)" xlink:href="#radial-gradient"/>
    <radialGradient id="radial-gradient-11" cx="31.085" cy="0.281" r="0.518" gradientTransform="matrix(106.774, -0.707, 106.774, 0.707, -4867.479, 32.334)" xlink:href="#radial-gradient"/>
    <radialGradient id="radial-gradient-12" cx="26.136" cy="0.314" r="0.518" gradientTransform="matrix(106.774, -0.707, 106.774, 0.707, -4127.01, 27.384)" xlink:href="#radial-gradient"/>
    <radialGradient id="radial-gradient-13" cx="21.186" cy="0.346" r="0.518" gradientTransform="matrix(106.776, -0.707, 106.771, 0.707, -3386.667, 22.434)" xlink:href="#radial-gradient"/>
    <radialGradient id="radial-gradient-14" cx="16.236" cy="0.379" r="0.518" gradientTransform="matrix(106.776, -0.707, 106.774, 0.707, -2646.247, 17.484)" xlink:href="#radial-gradient"/>
    <radialGradient id="radial-gradient-15" cx="11.286" cy="0.412" r="0.518" gradientTransform="matrix(106.774, -0.707, 106.774, 0.707, -1905.742, 12.535)" xlink:href="#radial-gradient"/>
    <radialGradient id="radial-gradient-16" cx="6.336" cy="0.445" r="0.518" gradientTransform="matrix(106.774, -0.707, 106.774, 0.707, -1165.334, 7.585)" xlink:href="#radial-gradient"/>
    <radialGradient id="radial-gradient-17" cx="1.387" cy="0.478" r="0.518" gradientTransform="matrix(106.777, -0.707, 106.772, 0.707, -424.913, 2.635)" xlink:href="#radial-gradient"/>
    <radialGradient id="radial-gradient-18" cx="-3.563" cy="0.51" r="0.518" gradientTransform="matrix(106.777, -0.707, 106.772, 0.707, 315.53, -2.315)" xlink:href="#radial-gradient"/>
    <radialGradient id="radial-gradient-19" cx="-8.513" cy="0.543" r="0.518" gradientTransform="matrix(106.774, -0.707, 106.774, 0.707, 1055.957, -7.265)" xlink:href="#radial-gradient"/>
    <radialGradient id="radial-gradient-20" cx="-13.463" cy="0.576" r="0.518" gradientTransform="matrix(106.774, -0.707, 106.774, 0.707, 1796.384, -12.214)" xlink:href="#radial-gradient"/>
    <radialGradient id="radial-gradient-21" cx="-18.413" cy="0.609" r="0.518" gradientTransform="matrix(106.777, -0.707, 106.772, 0.707, 2536.875, -17.164)" xlink:href="#radial-gradient"/>
    <radialGradient id="radial-gradient-22" cx="-23.363" cy="0.641" r="0.518" gradientTransform="matrix(106.777, -0.707, 106.772, 0.707, 3277.319, -22.113)" xlink:href="#radial-gradient"/>
    <radialGradient id="radial-gradient-23" cx="-28.312" cy="0.674" r="0.518" gradientTransform="matrix(106.775, -0.707, 106.774, 0.707, 4017.68, -27.064)" xlink:href="#radial-gradient"/>
    <radialGradient id="radial-gradient-24" cx="-33.262" cy="0.707" r="0.518" gradientTransform="matrix(106.774, -0.707, 106.774, 0.707, 4758.102, -32.014)" xlink:href="#radial-gradient"/>
    <radialGradient id="radial-gradient-25" cx="-38.213" cy="0.74" r="0.518" gradientTransform="matrix(106.777, -0.707, 106.772, 0.707, 5498.655, -36.963)" xlink:href="#radial-gradient"/>
    <radialGradient id="radial-gradient-26" cx="-43.163" cy="0.773" r="0.518" gradientTransform="matrix(106.777, -0.707, 106.772, 0.707, 6239.107, -41.912)" xlink:href="#radial-gradient"/>
    <radialGradient id="radial-gradient-27" cx="-48.111" cy="0.805" r="0.518" gradientTransform="matrix(106.774, -0.707, 106.774, 0.707, 6979.394, -46.863)" xlink:href="#radial-gradient"/>
    <radialGradient id="radial-gradient-28" cx="-53.061" cy="0.838" r="0.518" gradientTransform="matrix(106.774, -0.707, 106.774, 0.707, 7719.822, -51.813)" xlink:href="#radial-gradient"/>
    <radialGradient id="radial-gradient-29" cx="-58.012" cy="0.871" r="0.518" gradientTransform="matrix(106.777, -0.707, 106.772, 0.707, 8460.45, -56.761)" xlink:href="#radial-gradient"/>
    <radialGradient id="radial-gradient-30" cx="-62.961" cy="0.904" r="0.518" gradientTransform="matrix(106.774, -0.707, 106.774, 0.707, 9200.684, -61.713)" xlink:href="#radial-gradient"/>
    <radialGradient id="radial-gradient-31" cx="-67.911" cy="0.936" r="0.518" gradientTransform="matrix(106.774, -0.707, 106.774, 0.707, 9941.112, -66.662)" xlink:href="#radial-gradient"/>
    <radialGradient id="radial-gradient-32" cx="-72.862" cy="0.969" r="0.518" gradientTransform="matrix(106.777, -0.707, 106.772, 0.707, 10681.795, -71.61)" xlink:href="#radial-gradient"/>
    <radialGradient id="radial-gradient-33" cx="-77.812" cy="1.002" r="0.518" gradientTransform="matrix(106.777, -0.707, 106.772, 0.707, 11422.297, -76.56)" xlink:href="#radial-gradient"/>
    <radialGradient id="radial-gradient-34" cx="-82.76" cy="1.035" r="0.518" gradientTransform="matrix(106.774, -0.707, 106.774, 0.707, 12162.356, -81.511)" xlink:href="#radial-gradient"/>
    <radialGradient id="radial-gradient-35" cx="-87.71" cy="1.068" r="0.518" gradientTransform="matrix(106.774, -0.707, 106.774, 0.707, 12902.807, -86.461)" xlink:href="#radial-gradient"/>
    <radialGradient id="radial-gradient-36" cx="-92.662" cy="1.1" r="0.518" gradientTransform="matrix(106.777, -0.707, 106.772, 0.707, 13643.621, -91.409)" xlink:href="#radial-gradient"/>
    <radialGradient id="radial-gradient-37" cx="80.584" cy="1.047" r="0.518" gradientTransform="matrix(106.774, 0.707, 106.774, -0.707, -202930.422, -1355.417)" xlink:href="#radial-gradient"/>
    <radialGradient id="radial-gradient-38" cx="75.635" cy="1.014" r="0.518" gradientTransform="matrix(106.777, 0.707, 106.772, -0.707, -203675.656, -1360.335)" xlink:href="#radial-gradient"/>
    <radialGradient id="radial-gradient-39" cx="70.686" cy="0.981" r="0.518" gradientTransform="matrix(106.777, 0.707, 106.772, -0.707, -204416.109, -1365.285)" xlink:href="#radial-gradient"/>
    <radialGradient id="radial-gradient-40" cx="65.734" cy="0.949" r="0.518" gradientTransform="matrix(106.774, 0.707, 106.775, -0.707, -205150.813, -1370.273)" xlink:href="#radial-gradient"/>
    <radialGradient id="radial-gradient-41" cx="60.784" cy="0.916" r="0.518" gradientTransform="matrix(106.774, 0.707, 106.774, -0.707, -205892.141, -1375.216)" xlink:href="#radial-gradient"/>
    <radialGradient id="radial-gradient-42" cx="55.836" cy="0.883" r="0.518" gradientTransform="matrix(106.777, 0.707, 106.771, -0.707, -206638.313, -1380.128)" xlink:href="#radial-gradient"/>
    <radialGradient id="radial-gradient-43" cx="50.885" cy="0.85" r="0.518" gradientTransform="matrix(106.774, 0.707, 106.774, -0.707, -207372.969, -1385.116)" xlink:href="#radial-gradient"/>
    <radialGradient id="radial-gradient-44" cx="45.935" cy="0.817" r="0.518" gradientTransform="matrix(106.774, 0.707, 106.774, -0.707, -208113.422, -1390.066)" xlink:href="#radial-gradient"/>
    <radialGradient id="radial-gradient-45" cx="40.985" cy="0.785" r="0.518" gradientTransform="matrix(106.774, 0.707, 106.774, -0.707, -208853.859, -1395.016)" xlink:href="#radial-gradient"/>
    <radialGradient id="radial-gradient-46" cx="36.036" cy="0.752" r="0.518" gradientTransform="matrix(106.777, 0.707, 106.772, -0.707, -209599.25, -1399.933)" xlink:href="#radial-gradient"/>
    <radialGradient id="radial-gradient-47" cx="31.085" cy="0.719" r="0.518" gradientTransform="matrix(106.774, 0.707, 106.774, -0.707, -210334.703, -1404.915)" xlink:href="#radial-gradient"/>
    <radialGradient id="radial-gradient-48" cx="26.136" cy="0.686" r="0.518" gradientTransform="matrix(106.774, 0.707, 106.774, -0.707, -211075.141, -1409.865)" xlink:href="#radial-gradient"/>
    <radialGradient id="radial-gradient-49" cx="21.186" cy="0.654" r="0.518" gradientTransform="matrix(106.777, 0.707, 106.772, -0.707, -211820.594, -1414.782)" xlink:href="#radial-gradient"/>
    <radialGradient id="radial-gradient-50" cx="16.236" cy="0.621" r="0.518" gradientTransform="matrix(106.777, 0.707, 106.772, -0.707, -212561.031, -1419.731)" xlink:href="#radial-gradient"/>
    <radialGradient id="radial-gradient-51" cx="11.286" cy="0.588" r="0.518" gradientTransform="matrix(106.774, 0.707, 106.774, -0.707, -213296.438, -1424.715)" xlink:href="#radial-gradient"/>
    <radialGradient id="radial-gradient-52" cx="6.336" cy="0.555" r="0.518" gradientTransform="matrix(106.774, 0.707, 106.774, -0.707, -214036.859, -1429.664)" xlink:href="#radial-gradient"/>
    <radialGradient id="radial-gradient-53" cx="1.387" cy="0.522" r="0.518" gradientTransform="matrix(106.777, 0.707, 106.772, -0.707, -214781.781, -1434.584)" xlink:href="#radial-gradient"/>
    <radialGradient id="radial-gradient-54" cx="-3.563" cy="0.49" r="0.518" gradientTransform="matrix(106.777, 0.707, 106.772, -0.707, -215522.828, -1439.53)" xlink:href="#radial-gradient"/>
    <radialGradient id="radial-gradient-55" cx="-8.513" cy="0.457" r="0.518" gradientTransform="matrix(106.775, 0.707, 106.774, -0.707, -216258.672, -1444.51)" xlink:href="#radial-gradient"/>
    <radialGradient id="radial-gradient-56" cx="-13.463" cy="0.424" r="0.518" gradientTransform="matrix(106.774, 0.707, 106.774, -0.707, -216998.578, -1449.464)" xlink:href="#radial-gradient"/>
    <radialGradient id="radial-gradient-57" cx="-18.413" cy="0.391" r="0.518" gradientTransform="matrix(106.777, 0.707, 106.772, -0.707, -217744.172, -1454.379)" xlink:href="#radial-gradient"/>
    <radialGradient id="radial-gradient-58" cx="-23.363" cy="0.359" r="0.518" gradientTransform="matrix(106.776, 0.707, 106.771, -0.707, -218482.391, -1459.322)" xlink:href="#radial-gradient"/>
    <radialGradient id="radial-gradient-59" cx="-28.312" cy="0.326" r="0.518" gradientTransform="matrix(106.775, 0.707, 106.775, -0.707, -219222.094, -1464.32)" xlink:href="#radial-gradient"/>
    <radialGradient id="radial-gradient-60" cx="-33.262" cy="0.293" r="0.518" gradientTransform="matrix(106.774, 0.707, 106.774, -0.707, -219958.047, -1469.255)" xlink:href="#radial-gradient"/>
    <radialGradient id="radial-gradient-61" cx="-38.212" cy="0.26" r="0.518" gradientTransform="matrix(106.776, 0.707, 106.771, -0.707, -220703.719, -1474.171)" xlink:href="#radial-gradient"/>
    <radialGradient id="radial-gradient-62" cx="-43.163" cy="0.227" r="0.518" gradientTransform="matrix(106.777, 0.707, 106.772, -0.707, -221446.047, -1479.13)" xlink:href="#radial-gradient"/>
    <radialGradient id="radial-gradient-63" cx="-48.111" cy="0.195" r="0.518" gradientTransform="matrix(106.774, 0.707, 106.774, -0.707, -222179.328, -1484.105)" xlink:href="#radial-gradient"/>
    <radialGradient id="radial-gradient-64" cx="-53.061" cy="0.162" r="0.518" gradientTransform="matrix(106.774, 0.707, 106.774, -0.707, -222921.172, -1489.056)" xlink:href="#radial-gradient"/>
    <radialGradient id="radial-gradient-65" cx="-58.012" cy="0.129" r="0.518" gradientTransform="matrix(106.777, 0.707, 106.772, -0.707, -223666.594, -1493.973)" xlink:href="#radial-gradient"/>
    <radialGradient id="radial-gradient-66" cx="-62.962" cy="0.096" r="0.518" gradientTransform="matrix(106.775, 0.707, 106.775, -0.707, -224407.406, -1498.977)" xlink:href="#radial-gradient"/>
    <radialGradient id="radial-gradient-67" cx="-67.911" cy="0.064" r="0.518" gradientTransform="matrix(106.774, 0.707, 106.774, -0.707, -225142.156, -1503.908)" xlink:href="#radial-gradient"/>
    <radialGradient id="radial-gradient-68" cx="-72.861" cy="0.031" r="0.518" gradientTransform="matrix(106.775, 0.707, 106.775, -0.707, -225887.766, -1508.875)" xlink:href="#radial-gradient"/>
    <radialGradient id="radial-gradient-69" cx="-77.812" cy="-0.002" r="0.518" gradientTransform="matrix(106.777, 0.707, 106.772, -0.707, -226628.313, -1513.771)" xlink:href="#radial-gradient"/>
    <radialGradient id="radial-gradient-70" cx="-82.76" cy="-0.035" r="0.518" gradientTransform="matrix(106.774, 0.707, 106.774, -0.707, -227363.469, -1518.757)" xlink:href="#radial-gradient"/>
    <radialGradient id="radial-gradient-71" cx="-87.71" cy="-0.068" r="0.518" gradientTransform="matrix(106.774, 0.707, 106.774, -0.707, -228103.891, -1523.707)" xlink:href="#radial-gradient"/>
    <radialGradient id="radial-gradient-72" cx="-92.662" cy="-0.1" r="0.518" gradientTransform="matrix(106.777, 0.707, 106.772, -0.707, -228849.703, -1528.621)" xlink:href="#radial-gradient"/>
    <linearGradient id="linear-gradient" x1="0.5" y1="-0.178" x2="0.5" y2="0.911" gradientUnits="objectBoundingBox">
      <stop offset="0" stop-color="#fab319"/>
      <stop offset="1" stop-color="#ffd300"/>
    </linearGradient>
    <clipPath id="clip-path-2">
      <path id="Rectangle_94" data-name="Rectangle 94" d="M0,0H1922.356a0,0,0,0,1,0,0V258.441a3.5,3.5,0,0,1-3.5,3.5H3.5a3.5,3.5,0,0,1-3.5-3.5V0A0,0,0,0,1,0,0Z" transform="translate(1922.356 261.941) rotate(180)" fill="none" stroke="#fdc709" stroke-width="1"/>
    </clipPath>
    <linearGradient id="linear-gradient-2" x1="0.5" y1="0.641" x2="0.5" y2="0.388" gradientUnits="objectBoundingBox">
      <stop offset="0" stop-color="#231e1f"/>
      <stop offset="1" stop-color="#1d1d1b"/>
    </linearGradient>
    <linearGradient id="linear-gradient-7" y1="10.299" y2="11.389" xlink:href="#linear-gradient"/>
    <clipPath id="clip-path-3">
      <path id="Rectangle_102" data-name="Rectangle 102" d="M3.5,0H1918.856a3.5,3.5,0,0,1,3.5,3.5V248.612a0,0,0,0,1,0,0H0a0,0,0,0,1,0,0V3.5A3.5,3.5,0,0,1,3.5,0Z" transform="translate(1922.356 248.612) rotate(180)" fill="none"/>
    </clipPath>
    <linearGradient id="linear-gradient-8" x1="126.522" y1="4.692" x2="126.522" y2="4.439" xlink:href="#linear-gradient-2"/>
    <linearGradient id="linear-gradient-9" x1="131.611" y1="4.692" x2="131.611" y2="4.439" xlink:href="#linear-gradient-2"/>
    <linearGradient id="linear-gradient-10" x1="136.7" y1="4.692" x2="136.7" y2="4.439" xlink:href="#linear-gradient-2"/>
    <linearGradient id="linear-gradient-11" x1="141.789" y1="4.692" x2="141.789" y2="4.439" xlink:href="#linear-gradient-2"/>
    <linearGradient id="linear-gradient-12" x1="146.878" y1="4.692" x2="146.878" y2="4.439" xlink:href="#linear-gradient-2"/>
    <clipPath id="clip-Under-Construction">
      <rect width="1920" height="1080"/>
    </clipPath>
  </defs>
  <g id="Under-Construction" clip-path="url(#clip-Under-Construction)">
    <rect width="1920" height="1080" fill="#fff"/>
    <g id="Group_17" data-name="Group 17">
      <g id="Group_16" data-name="Group 16" transform="translate(-85.85 -294.78)">
        <g id="Group_1" data-name="Group 1" transform="translate(85.85 295.204)" opacity="0.6" style="mix-blend-mode: multiply;isolation: isolate">
          <rect id="Rectangle_1" data-name="Rectangle 1" width="1922.356" height="1077.282" rx="3.5" transform="translate(10.945 10.521)" fill="#5a5a59" opacity="0"/>
          <rect id="Rectangle_2" data-name="Rectangle 2" width="1922.356" height="1077.282" rx="3.5" transform="translate(9.95 9.526)" fill="#5a5a59" opacity="0.091"/>
          <rect id="Rectangle_3" data-name="Rectangle 3" width="1922.356" height="1077.282" rx="3.5" transform="translate(8.955 8.531)" fill="#5a5a59" opacity="0.182"/>
          <rect id="Rectangle_4" data-name="Rectangle 4" width="1922.356" height="1077.282" rx="3.5" transform="translate(7.96 7.536)" fill="#5a5a59" opacity="0.273"/>
          <rect id="Rectangle_5" data-name="Rectangle 5" width="1922.356" height="1077.282" rx="3.5" transform="translate(6.965 6.541)" fill="#5a5a59" opacity="0.364"/>
          <rect id="Rectangle_6" data-name="Rectangle 6" width="1922.356" height="1077.282" rx="3.5" transform="translate(5.97 5.546)" fill="#5a5a59" opacity="0.455"/>
          <rect id="Rectangle_7" data-name="Rectangle 7" width="1922.356" height="1077.282" rx="3.5" transform="translate(4.975 4.551)" fill="#5a5a59" opacity="0.545"/>
          <rect id="Rectangle_8" data-name="Rectangle 8" width="1922.356" height="1077.282" rx="3.5" transform="translate(3.98 3.556)" fill="#5a5a59" opacity="0.636"/>
          <rect id="Rectangle_9" data-name="Rectangle 9" width="1922.356" height="1077.282" rx="3.5" transform="translate(2.985 2.561)" fill="#5a5a59" opacity="0.727"/>
          <rect id="Rectangle_10" data-name="Rectangle 10" width="1922" height="1077" rx="3.5" transform="translate(2 1.576)" fill="#5a5a59" opacity="0.818"/>
          <rect id="Rectangle_11" data-name="Rectangle 11" width="1922" height="1077" rx="3.5" transform="translate(1 0.576)" fill="#5a5a59" opacity="0.909"/>
          <rect id="Rectangle_12" data-name="Rectangle 12" width="1922" height="1077" rx="3.5" transform="translate(0 -0.424)" fill="#5a5a59"/>
        </g>
        <g id="Group_15" data-name="Group 15" transform="translate(85.85 294.78)">
          <rect id="Rectangle_13" data-name="Rectangle 13" width="1922" height="1077" rx="3.5" transform="translate(1922 1077) rotate(180)" fill="#231e1f"/>
          <g id="Group_5" data-name="Group 5" transform="translate(0 0.424)">
            <g id="Group_4" data-name="Group 4" clip-path="url(#clip-path)">
              <g id="Group_2" data-name="Group 2" transform="translate(-1270.3 -95.207)">
                <path id="Path_1" data-name="Path 1" d="M222.889-2.73l11.854-1.025L79.9,1786.255l-11.854,1.026Z" transform="translate(1215.684 -117.861) rotate(45)" fill="url(#radial-gradient)"/>
                <path id="Path_2" data-name="Path 2" d="M222.889-2.73l11.854-1.025L79.9,1786.248l-11.854,1.026Z" transform="matrix(0.707, 0.707, -0.707, 0.707, 1305.823, -117.87)" fill="url(#radial-gradient-2)"/>
                <path id="Path_3" data-name="Path 3" d="M222.889-2.73l11.854-1.025L79.9,1786.248l-11.854,1.026Z" transform="matrix(0.707, 0.707, -0.707, 0.707, 1395.982, -117.87)" fill="url(#radial-gradient-3)"/>
                <path id="Path_4" data-name="Path 4" d="M222.889-2.73l11.854-1.025L79.9,1786.255l-11.854,1.026Z" transform="translate(1486.161 -117.861) rotate(45)" fill="url(#radial-gradient-4)"/>
                <path id="Path_5" data-name="Path 5" d="M222.889-2.73l11.854-1.025L79.9,1786.255l-11.854,1.026Z" transform="translate(1576.32 -117.861) rotate(45)" fill="url(#radial-gradient-5)"/>
                <path id="Path_6" data-name="Path 6" d="M222.889-2.73l11.854-1.025L79.9,1786.248l-11.854,1.026Z" transform="matrix(0.707, 0.707, -0.707, 0.707, 1666.459, -117.87)" fill="url(#radial-gradient-6)"/>
                <path id="Path_7" data-name="Path 7" d="M222.889-2.73l11.854-1.025L79.9,1786.255l-11.854,1.026Z" transform="translate(1756.638 -117.86) rotate(45)" fill="url(#radial-gradient-7)"/>
                <path id="Path_8" data-name="Path 8" d="M222.889-2.73l11.854-1.025L79.9,1786.255l-11.854,1.026Z" transform="translate(1846.797 -117.861) rotate(45)" fill="url(#radial-gradient-8)"/>
                <path id="Path_9" data-name="Path 9" d="M222.889-2.73l11.854-1.025L79.9,1786.248l-11.854,1.026Z" transform="matrix(0.707, 0.707, -0.707, 0.707, 1936.936, -117.87)" fill="url(#radial-gradient-9)"/>
                <path id="Path_10" data-name="Path 10" d="M222.889-2.73l11.854-1.025L79.9,1786.248l-11.854,1.026Z" transform="matrix(0.707, 0.707, -0.707, 0.707, 2027.094, -117.87)" fill="url(#radial-gradient-10)"/>
                <path id="Path_11" data-name="Path 11" d="M222.889-2.73l11.854-1.025L79.9,1786.255l-11.854,1.026Z" transform="translate(2117.273 -117.861) rotate(45)" fill="url(#radial-gradient-11)"/>
                <path id="Path_12" data-name="Path 12" d="M222.889-2.73l11.854-1.025L79.9,1786.255l-11.854,1.026Z" transform="translate(2207.432 -117.861) rotate(45)" fill="url(#radial-gradient-12)"/>
                <path id="Path_13" data-name="Path 13" d="M222.889-2.73l11.854-1.025L79.9,1786.248l-11.854,1.026Z" transform="matrix(0.707, 0.707, -0.707, 0.707, 2297.572, -117.87)" fill="url(#radial-gradient-13)"/>
                <path id="Path_14" data-name="Path 14" d="M222.889-2.73l11.854-1.025L79.9,1786.252l-11.854,1.026Z" transform="translate(2387.742 -117.865) rotate(44.999)" fill="url(#radial-gradient-14)"/>
                <path id="Path_15" data-name="Path 15" d="M222.889-2.73l11.854-1.025L79.9,1786.255l-11.854,1.026Z" transform="translate(2477.909 -117.861) rotate(45)" fill="url(#radial-gradient-15)"/>
                <path id="Path_16" data-name="Path 16" d="M222.889-2.73l11.854-1.025L79.9,1786.255l-11.854,1.026Z" transform="translate(2568.068 -117.861) rotate(45)" fill="url(#radial-gradient-16)"/>
                <path id="Path_17" data-name="Path 17" d="M222.889-2.73l11.854-1.025L79.9,1786.248l-11.854,1.026Z" transform="matrix(0.707, 0.707, -0.707, 0.707, 2658.207, -117.87)" fill="url(#radial-gradient-17)"/>
                <path id="Path_18" data-name="Path 18" d="M222.889-2.73l11.854-1.025L79.9,1786.248l-11.854,1.026Z" transform="matrix(0.707, 0.707, -0.707, 0.707, 2748.366, -117.87)" fill="url(#radial-gradient-18)"/>
                <path id="Path_19" data-name="Path 19" d="M222.889-2.73l11.854-1.025L79.9,1786.255l-11.854,1.026Z" transform="translate(2838.545 -117.861) rotate(45)" fill="url(#radial-gradient-19)"/>
                <path id="Path_20" data-name="Path 20" d="M222.889-2.73l11.854-1.025L79.9,1786.255l-11.854,1.026Z" transform="translate(2928.704 -117.861) rotate(45)" fill="url(#radial-gradient-20)"/>
                <path id="Path_21" data-name="Path 21" d="M222.889-2.73l11.854-1.025L79.9,1786.248l-11.854,1.026Z" transform="matrix(0.707, 0.707, -0.707, 0.707, 3018.843, -117.87)" fill="url(#radial-gradient-21)"/>
                <path id="Path_22" data-name="Path 22" d="M222.889-2.73l11.854-1.025L79.9,1786.248l-11.854,1.026Z" transform="matrix(0.707, 0.707, -0.707, 0.707, 3109.001, -117.87)" fill="url(#radial-gradient-22)"/>
                <path id="Path_23" data-name="Path 23" d="M222.889-2.73l11.854-1.025L79.9,1786.255l-11.854,1.026Z" transform="translate(3199.18 -117.861) rotate(45)" fill="url(#radial-gradient-23)"/>
                <path id="Path_24" data-name="Path 24" d="M222.889-2.73l11.854-1.025L79.9,1786.255l-11.854,1.026Z" transform="translate(3289.339 -117.861) rotate(45)" fill="url(#radial-gradient-24)"/>
                <path id="Path_25" data-name="Path 25" d="M222.889-2.73l11.854-1.025L79.9,1786.248l-11.854,1.026Z" transform="translate(3379.479 -117.87) rotate(44.999)" fill="url(#radial-gradient-25)"/>
                <path id="Path_26" data-name="Path 26" d="M222.889-2.73l11.854-1.025L79.9,1786.248l-11.854,1.026Z" transform="matrix(0.707, 0.707, -0.707, 0.707, 3469.637, -117.87)" fill="url(#radial-gradient-26)"/>
                <path id="Path_27" data-name="Path 27" d="M222.889-2.73l11.854-1.025L79.9,1786.255l-11.854,1.026Z" transform="translate(3559.816 -117.861) rotate(45)" fill="url(#radial-gradient-27)"/>
                <path id="Path_28" data-name="Path 28" d="M222.889-2.73l11.854-1.025L79.9,1786.255l-11.854,1.026Z" transform="translate(3649.975 -117.861) rotate(45)" fill="url(#radial-gradient-28)"/>
                <path id="Path_29" data-name="Path 29" d="M222.889-2.73l11.854-1.025L79.9,1786.248l-11.854,1.026Z" transform="matrix(0.707, 0.707, -0.707, 0.707, 3740.114, -117.871)" fill="url(#radial-gradient-29)"/>
                <path id="Path_30" data-name="Path 30" d="M222.889-2.73l11.854-1.025L79.9,1786.255l-11.854,1.026Z" transform="translate(3830.293 -117.86) rotate(45)" fill="url(#radial-gradient-30)"/>
                <path id="Path_31" data-name="Path 31" d="M222.889-2.73l11.854-1.025L79.9,1786.255l-11.854,1.026Z" transform="translate(3920.452 -117.861) rotate(45)" fill="url(#radial-gradient-31)"/>
                <path id="Path_32" data-name="Path 32" d="M222.889-2.73l11.854-1.025L79.9,1786.248l-11.854,1.026Z" transform="matrix(0.707, 0.707, -0.707, 0.707, 4010.591, -117.87)" fill="url(#radial-gradient-32)"/>
                <path id="Path_33" data-name="Path 33" d="M222.889-2.73l11.854-1.025L79.9,1786.248l-11.854,1.025Z" transform="matrix(0.707, 0.707, -0.707, 0.707, 4100.75, -117.87)" fill="url(#radial-gradient-33)"/>
                <path id="Path_34" data-name="Path 34" d="M222.889-2.73l11.854-1.025L79.9,1786.255l-11.854,1.026Z" transform="translate(4190.929 -117.861) rotate(45)" fill="url(#radial-gradient-34)"/>
                <path id="Path_35" data-name="Path 35" d="M222.889-2.73l11.854-1.025L79.9,1786.255l-11.854,1.026Z" transform="translate(4281.087 -117.861) rotate(45)" fill="url(#radial-gradient-35)"/>
                <path id="Path_36" data-name="Path 36" d="M222.889-2.73l11.854-1.025L79.9,1786.247l-11.854,1.026Z" transform="matrix(0.707, 0.707, -0.707, 0.707, 4371.224, -117.872)" fill="url(#radial-gradient-36)"/>
              </g>
              <g id="Group_3" data-name="Group 3" transform="translate(-1270.284 -95.208)">
                <path id="Path_37" data-name="Path 37" d="M0,0,11.854,1.025,166.7,1791.036l-11.854-1.025Z" transform="translate(4539.875 1194.052) rotate(135)" fill="url(#radial-gradient-37)"/>
                <path id="Path_38" data-name="Path 38" d="M0,0,11.854,1.025l154.846,1790L154.846,1790Z" transform="matrix(-0.707, 0.707, -0.707, -0.707, 4449.7, 1194.066)" fill="url(#radial-gradient-38)"/>
                <path id="Path_39" data-name="Path 39" d="M0,0,11.854,1.025l154.846,1790L154.846,1790Z" transform="matrix(-0.707, 0.707, -0.707, -0.707, 4359.541, 1194.066)" fill="url(#radial-gradient-39)"/>
                <path id="Path_40" data-name="Path 40" d="M0,0,11.854,1.025,166.7,1791.038l-11.854-1.025Z" transform="matrix(-0.707, 0.707, -0.707, -0.707, 4269.401, 1194.05)" fill="url(#radial-gradient-40)"/>
                <path id="Path_41" data-name="Path 41" d="M0,0,11.854,1.025,166.7,1791.036l-11.854-1.025Z" transform="translate(4179.239 1194.052) rotate(135)" fill="url(#radial-gradient-41)"/>
                <path id="Path_42" data-name="Path 42" d="M0,0,11.854,1.025l154.846,1790L154.846,1790Z" transform="translate(4089.061 1194.068) rotate(135.002)" fill="url(#radial-gradient-42)"/>
                <path id="Path_43" data-name="Path 43" d="M0,0,11.854,1.025,166.7,1791.036l-11.854-1.025Z" transform="translate(3998.921 1194.052) rotate(135)" fill="url(#radial-gradient-43)"/>
                <path id="Path_44" data-name="Path 44" d="M0,0,11.854,1.025,166.7,1791.036l-11.854-1.025Z" transform="translate(3908.763 1194.052) rotate(135)" fill="url(#radial-gradient-44)"/>
                <path id="Path_45" data-name="Path 45" d="M0,0,11.854,1.025,166.7,1791.036l-11.854-1.025Z" transform="translate(3818.603 1194.052) rotate(135)" fill="url(#radial-gradient-45)"/>
                <path id="Path_46" data-name="Path 46" d="M0,0,11.854,1.025l154.846,1790L154.846,1790Z" transform="matrix(-0.707, 0.707, -0.707, -0.707, 3728.428, 1194.066)" fill="url(#radial-gradient-46)"/>
                <path id="Path_47" data-name="Path 47" d="M0,0,11.854,1.025,166.7,1791.036l-11.854-1.025Z" transform="translate(3638.285 1194.052) rotate(135)" fill="url(#radial-gradient-47)"/>
                <path id="Path_48" data-name="Path 48" d="M0,0,11.854,1.025,166.7,1791.036l-11.854-1.025Z" transform="translate(3548.126 1194.052) rotate(135)" fill="url(#radial-gradient-48)"/>
                <path id="Path_49" data-name="Path 49" d="M0,0,11.854,1.025l154.846,1790L154.846,1790Z" transform="matrix(-0.707, 0.707, -0.707, -0.707, 3457.951, 1194.066)" fill="url(#radial-gradient-49)"/>
                <path id="Path_50" data-name="Path 50" d="M0,0,11.854,1.025l154.846,1790L154.846,1790Z" transform="matrix(-0.707, 0.707, -0.707, -0.707, 3367.793, 1194.066)" fill="url(#radial-gradient-50)"/>
                <path id="Path_51" data-name="Path 51" d="M0,0,11.854,1.025,166.7,1791.036l-11.854-1.025Z" transform="translate(3277.65 1194.052) rotate(135)" fill="url(#radial-gradient-51)"/>
                <path id="Path_52" data-name="Path 52" d="M0,0,11.854,1.025,166.7,1791.036l-11.854-1.025Z" transform="translate(3187.491 1194.052) rotate(135)" fill="url(#radial-gradient-52)"/>
                <path id="Path_53" data-name="Path 53" d="M0,0,11.854,1.025l154.846,1790L154.846,1790Z" transform="matrix(-0.707, 0.707, -0.707, -0.707, 3097.318, 1194.064)" fill="url(#radial-gradient-53)"/>
                <path id="Path_54" data-name="Path 54" d="M0,0,11.854,1.025l154.846,1790L154.846,1790Z" transform="matrix(-0.707, 0.707, -0.707, -0.707, 3007.157, 1194.066)" fill="url(#radial-gradient-54)"/>
                <path id="Path_55" data-name="Path 55" d="M0,0,11.854,1.025,166.7,1791.036l-11.854-1.025Z" transform="translate(2917.013 1194.053) rotate(135)" fill="url(#radial-gradient-55)"/>
                <path id="Path_56" data-name="Path 56" d="M0,0,11.854,1.025,166.7,1791.036l-11.854-1.025Z" transform="translate(2826.856 1194.052) rotate(135)" fill="url(#radial-gradient-56)"/>
                <path id="Path_57" data-name="Path 57" d="M0,0,11.854,1.025l154.846,1790L154.846,1790Z" transform="matrix(-0.707, 0.707, -0.707, -0.707, 2736.681, 1194.066)" fill="url(#radial-gradient-57)"/>
                <path id="Path_58" data-name="Path 58" d="M0,0,11.854,1.025l154.846,1790L154.846,1790Z" transform="matrix(-0.707, 0.707, -0.707, -0.707, 2646.521, 1194.066)" fill="url(#radial-gradient-58)"/>
                <path id="Path_59" data-name="Path 59" d="M0,0,11.854,1.025,166.7,1791.036l-11.854-1.025Z" transform="translate(2556.378 1194.052) rotate(135)" fill="url(#radial-gradient-59)"/>
                <path id="Path_60" data-name="Path 60" d="M0,0,11.854,1.025,166.7,1791.036l-11.854-1.025Z" transform="translate(2466.22 1194.052) rotate(135)" fill="url(#radial-gradient-60)"/>
                <path id="Path_61" data-name="Path 61" d="M0,0,11.854,1.025l154.846,1790L154.846,1790Z" transform="matrix(-0.707, 0.707, -0.707, -0.707, 2376.045, 1194.066)" fill="url(#radial-gradient-61)"/>
                <path id="Path_62" data-name="Path 62" d="M0,0,11.854,1.025l154.846,1790L154.846,1790Z" transform="translate(2285.887 1194.065) rotate(135.001)" fill="url(#radial-gradient-62)"/>
                <path id="Path_63" data-name="Path 63" d="M0,0,11.854,1.025,166.7,1791.036l-11.854-1.025Z" transform="translate(2195.743 1194.052) rotate(135)" fill="url(#radial-gradient-63)"/>
                <path id="Path_64" data-name="Path 64" d="M0,0,11.854,1.025,166.7,1791.036l-11.854-1.025Z" transform="translate(2105.583 1194.053) rotate(135)" fill="url(#radial-gradient-64)"/>
                <path id="Path_65" data-name="Path 65" d="M0,0,11.854,1.025l154.846,1790L154.846,1790Z" transform="matrix(-0.707, 0.707, -0.707, -0.707, 2015.409, 1194.066)" fill="url(#radial-gradient-65)"/>
                <path id="Path_66" data-name="Path 66" d="M0,0,11.854,1.025,166.7,1791.036l-11.854-1.025Z" transform="translate(1925.266 1194.052) rotate(135)" fill="url(#radial-gradient-66)"/>
                <path id="Path_67" data-name="Path 67" d="M0,0,11.854,1.025,166.7,1791.036l-11.854-1.025Z" transform="translate(1835.107 1194.052) rotate(135)" fill="url(#radial-gradient-67)"/>
                <path id="Path_68" data-name="Path 68" d="M0,0,11.854,1.025,166.7,1791.036l-11.854-1.025Z" transform="translate(1744.948 1194.052) rotate(135)" fill="url(#radial-gradient-68)"/>
                <path id="Path_69" data-name="Path 69" d="M0,0,11.854,1.025l154.846,1790L154.846,1790Z" transform="matrix(-0.707, 0.707, -0.707, -0.707, 1654.773, 1194.066)" fill="url(#radial-gradient-69)"/>
                <path id="Path_70" data-name="Path 70" d="M0,0,11.854,1.025,166.7,1791.036l-11.854-1.025Z" transform="translate(1564.63 1194.052) rotate(135)" fill="url(#radial-gradient-70)"/>
                <path id="Path_71" data-name="Path 71" d="M0,0,11.854,1.025,166.7,1791.036l-11.854-1.025Z" transform="translate(1474.472 1194.052) rotate(135)" fill="url(#radial-gradient-71)"/>
                <path id="Path_72" data-name="Path 72" d="M0,0,11.854,1.025l154.846,1790L154.846,1790Z" transform="matrix(-0.707, 0.707, -0.707, -0.707, 1384.297, 1194.066)" fill="url(#radial-gradient-72)"/>
              </g>
            </g>
          </g>
          <g id="Group_9" data-name="Group 9" transform="translate(0 0)">
            <rect id="Rectangle_87" data-name="Rectangle 87" width="1922.356" height="265.799" transform="translate(1922.356 265.799) rotate(180)" stroke="#fdc709" stroke-width="1" fill="url(#linear-gradient)"/>
            <g id="Group_8" data-name="Group 8">
              <g id="Group_7" data-name="Group 7" clip-path="url(#clip-path-2)">
                <g id="Group_6" data-name="Group 6" transform="translate(-367.978 -393.145)">
                  <path id="Path_73" data-name="Path 73" d="M210.351,71.483,386.943,48.24,275.375,828.645,98.783,851.888Z" transform="translate(428.81 0) rotate(36.615)" stroke="#fdc709" stroke-width="1" fill="url(#linear-gradient-2)"/>
                  <path id="Path_74" data-name="Path 74" d="M210.35,71.483,386.943,48.24l-111.568,780.4L98.783,851.888Z" transform="matrix(0.803, 0.596, -0.596, 0.803, 922.086, 0)" stroke="#fdc709" stroke-width="1" fill="url(#linear-gradient-2)"/>
                  <path id="Path_75" data-name="Path 75" d="M210.351,71.483,386.943,48.24,275.375,828.645,98.783,851.888Z" transform="translate(1415.363 0) rotate(36.615)" stroke="#fdc709" stroke-width="1" fill="url(#linear-gradient-2)"/>
                  <path id="Path_76" data-name="Path 76" d="M210.35,71.483,386.943,48.24l-111.568,780.4L98.783,851.888Z" transform="matrix(0.803, 0.596, -0.596, 0.803, 1908.638, 0)" stroke="#fdc709" stroke-width="1" fill="url(#linear-gradient-2)"/>
                  <path id="Path_77" data-name="Path 77" d="M210.351,71.483,386.943,48.24l-111.568,780.4L98.783,851.888Z" transform="translate(2401.916 0) rotate(36.615)" stroke="#fdc709" stroke-width="1" fill="url(#linear-gradient-2)"/>
                </g>
              </g>
            </g>
          </g>
          <g id="Group_13" data-name="Group 13" transform="translate(0 812.884)">
            <path id="Rectangle_95" data-name="Rectangle 95" d="M3.5,0H1918.856a3.5,3.5,0,0,1,3.5,3.5V252.47a0,0,0,0,1,0,0H0a0,0,0,0,1,0,0V3.5A3.5,3.5,0,0,1,3.5,0Z" transform="translate(1922.356 264.398) rotate(180)" fill="url(#linear-gradient-7)"/>
            <g id="Group_12" data-name="Group 12" transform="translate(0 15.786)">
              <g id="Group_11" data-name="Group 11" clip-path="url(#clip-path-3)">
                <g id="Group_10" data-name="Group 10" transform="translate(-369.763 -314.187)">
                  <path id="Path_78" data-name="Path 78" d="M181.085,50.795,355.047,24.012,226.488,781.55,52.526,808.333Z" transform="matrix(-0.803, -0.596, 0.596, -0.803, 2243.766, 911.181)" fill="url(#linear-gradient-8)"/>
                  <path id="Path_79" data-name="Path 79" d="M181.085,50.795,355.047,24.012,226.488,781.55,52.526,808.333Z" transform="translate(1750.489 911.182) rotate(-143.385)" fill="url(#linear-gradient-9)"/>
                  <path id="Path_80" data-name="Path 80" d="M181.085,50.795,355.047,24.012,226.488,781.55,52.526,808.333Z" transform="translate(1257.213 911.182) rotate(-143.385)" fill="url(#linear-gradient-10)"/>
                  <path id="Path_81" data-name="Path 81" d="M181.085,50.795,355.047,24.012,226.488,781.55,52.526,808.333Z" transform="translate(763.937 911.181) rotate(-143.385)" fill="url(#linear-gradient-11)"/>
                  <path id="Path_82" data-name="Path 82" d="M181.085,50.795,355.047,24.012,226.488,781.55,52.526,808.333Z" transform="matrix(-0.803, -0.596, 0.596, -0.803, 270.66, 911.181)" fill="url(#linear-gradient-12)"/>
                </g>
              </g>
            </g>
          </g>
        </g>
      </g>
      <rect id="Rectangle_103" data-name="Rectangle 103" width="1920" height="21" transform="translate(0 263)" fill="#fbbb12"/>
    </g>
    <rect id="Rectangle_104" data-name="Rectangle 104" width="1920" height="21" transform="translate(0 804)" fill="#fab319"/>
  </g>
</svg>
