<svg xmlns="http://www.w3.org/2000/svg" width="326.563" height="38.519" viewBox="0 0 326.563 38.519">
  <g id="Group_1" data-name="Group 1" transform="translate(-130.734 -299.626)">
    <path id="star" d="M38.031,14.261H24.363L19.015,0,13.667,14.261H0l10.291,9L4.754,38.031,19.015,30.9l14.261,7.131L27.74,23.266Z" transform="translate(131 299.91)" fill="gold" stroke="#000" stroke-width="0.2"/>
    <path id="star-2" data-name="star" d="M38.031,14.261H24.363L19.015,0,13.667,14.261H0l10.291,9L4.754,38.031,19.015,30.9l14.261,7.131L27.74,23.266Z" transform="translate(203 299.91)" fill="gold" stroke="#000" stroke-width="0.2"/>
    <path id="star-3" data-name="star" d="M38.031,14.261H24.363L19.015,0,13.667,14.261H0l10.291,9L4.754,38.031,19.015,30.9l14.261,7.131L27.74,23.266Z" transform="translate(275 299.91)" fill="gold" stroke="#000" stroke-width="0.2"/>
    <path id="star-4" data-name="star" d="M38.031,14.261H24.363L19.015,0,13.667,14.261H0l10.291,9L4.754,38.031,19.015,30.9l14.261,7.131L27.74,23.266Z" transform="translate(347 299.91)" fill="gold" stroke="#000" stroke-width="0.2"/>
    <path id="star-5" data-name="star" d="M38.031,14.261H24.363L19.015,0,13.667,14.261H0l10.291,9L4.754,38.031,19.015,30.9l14.261,7.131L27.74,23.266Z" transform="translate(419 299.91)" fill="gold" stroke="#000" stroke-width="0.2"/>
  </g>
</svg>
