<svg xmlns="http://www.w3.org/2000/svg" width="405.334" height="512.024" viewBox="0 0 405.334 512.024">
  <g id="android_1_" data-name="android (1)" transform="translate(-53.344 0.001)">
    <g id="Group_6" data-name="Group 6" transform="translate(138.678 42.689)">
      <g id="Group_5" data-name="Group 5" transform="translate(0 0)">
        <path id="Path_20" data-name="Path 20" d="M256.011,42.689A117.458,117.458,0,0,0,138.678,160.022a10.671,10.671,0,0,0,10.667,10.667H362.678a10.671,10.671,0,0,0,10.667-10.667A117.459,117.459,0,0,0,256.011,42.689Zm-95.4,106.666a96,96,0,0,1,190.806,0Z" transform="translate(-138.678 -42.689)"/>
      </g>
    </g>
    <g id="Group_8" data-name="Group 8">
      <g id="Group_7" data-name="Group 7">
        <path id="Path_21" data-name="Path 21" d="M362.678,192.022H149.344a10.671,10.671,0,0,0-10.667,10.667V373.356a53.409,53.409,0,0,0,42.667,52.267v54.4a32,32,0,0,0,64,0V426.69h21.333v53.333a32,32,0,0,0,64,0v-54.4a53.426,53.426,0,0,0,42.667-52.267V202.689A10.67,10.67,0,0,0,362.678,192.022ZM352.011,373.356a32.039,32.039,0,0,1-32,32,10.671,10.671,0,0,0-10.667,10.667v64a10.667,10.667,0,0,1-21.334,0v-64a10.671,10.671,0,0,0-10.667-10.667H234.676a10.671,10.671,0,0,0-10.667,10.667v64a10.667,10.667,0,0,1-21.334,0v-64a10.671,10.671,0,0,0-10.667-10.667,32.039,32.039,0,0,1-32-32v-160h192v160Z"/>
      </g>
    </g>
    <g id="Group_10" data-name="Group 10">
      <g id="Group_9" data-name="Group 9">
        <circle id="Ellipse_1" data-name="Ellipse 1" cx="10.667" cy="10.667" r="10.667" transform="translate(202.677 106.688)"/>
      </g>
    </g>
    <g id="Group_12" data-name="Group 12">
      <g id="Group_11" data-name="Group 11">
        <circle id="Ellipse_2" data-name="Ellipse 2" cx="10.667" cy="10.667" r="10.667" transform="translate(288.011 106.688)"/>
      </g>
    </g>
    <g id="Group_14" data-name="Group 14">
      <g id="Group_13" data-name="Group 13">
        <path id="Path_22" data-name="Path 22" d="M426.678,192.022a32.039,32.039,0,0,0-32,32V330.689a32,32,0,0,0,64,0V224.022A32.04,32.04,0,0,0,426.678,192.022Zm10.666,138.667a10.667,10.667,0,0,1-21.334,0V224.022a10.667,10.667,0,0,1,21.334,0Z"/>
      </g>
    </g>
    <g id="Group_16" data-name="Group 16">
      <g id="Group_15" data-name="Group 15">
        <path id="Path_23" data-name="Path 23" d="M85.344,192.022a32.039,32.039,0,0,0-32,32V330.689a32,32,0,1,0,64,0V224.022A32.039,32.039,0,0,0,85.344,192.022ZM96.011,330.689a10.667,10.667,0,0,1-21.334,0V224.022a10.667,10.667,0,0,1,21.334,0Z"/>
      </g>
    </g>
    <g id="Group_18" data-name="Group 18">
      <g id="Group_17" data-name="Group 17">
        <path id="Path_24" data-name="Path 24" d="M223.776,57.75,201.8,6.486A10.666,10.666,0,0,0,182.2,14.892L204.17,66.156a10.653,10.653,0,0,0,9.813,6.464,10.441,10.441,0,0,0,4.2-.853A10.683,10.683,0,0,0,223.776,57.75Z"/>
      </g>
    </g>
    <g id="Group_20" data-name="Group 20">
      <g id="Group_19" data-name="Group 19">
        <path id="Path_25" data-name="Path 25" d="M324.192.875A10.647,10.647,0,0,0,310.2,6.486L288.224,57.75a10.651,10.651,0,0,0,5.611,14,10.465,10.465,0,0,0,4.2.875,10.652,10.652,0,0,0,9.813-6.464L329.8,14.871A10.652,10.652,0,0,0,324.192.875Z"/>
      </g>
    </g>
  </g>
</svg>
