<svg xmlns="http://www.w3.org/2000/svg" width="505.4" height="320.9" viewBox="0 0 505.4 320.9">
  <g id="group" transform="translate(-1087 585.75)">
    <g id="Group_4" data-name="Group 4" transform="translate(1087 -678)">
      <path id="Path_19" data-name="Path 19" d="M437.1,233.45a57.7,57.7,0,1,0-66.2,0,99.974,99.974,0,0,0-34.1,20,129.366,129.366,0,0,0-46.8-25.5,73.1,73.1,0,1,0-75.6,0,130.444,130.444,0,0,0-46.3,25.2,100.786,100.786,0,0,0-33.7-19.6,57.7,57.7,0,1,0-66.2,0A101.282,101.282,0,0,0,0,329.25v6.6a.43.43,0,0,0,.4.4H122.7a134.5,134.5,0,0,0-1.1,16.9v6.8a53.176,53.176,0,0,0,53.2,53.2h155a53.176,53.176,0,0,0,53.2-53.2v-6.8a134.5,134.5,0,0,0-1.1-16.9H505a.43.43,0,0,0,.4-.4v-6.6A101.671,101.671,0,0,0,437.1,233.45Zm-74.8-47.3a41.7,41.7,0,1,1,42.5,41.7h-1.6A41.639,41.639,0,0,1,362.3,186.15Zm-167.4-20.8a57.1,57.1,0,1,1,60.4,57h-6.6A57.182,57.182,0,0,1,194.9,165.35ZM59.3,186.15a41.7,41.7,0,1,1,42.5,41.7h-1.6A41.706,41.706,0,0,1,59.3,186.15Zm66.2,134H16.2a85.443,85.443,0,0,1,84.2-76.3h1.2a84.554,84.554,0,0,1,54.5,20.3A131.3,131.3,0,0,0,125.5,320.15Zm241.3,39.8a37.258,37.258,0,0,1-37.2,37.2h-155a37.258,37.258,0,0,1-37.2-37.2v-6.8a114.87,114.87,0,0,1,111.3-114.7c1.1.1,2.3.1,3.4.1s2.3,0,3.4-.1a114.87,114.87,0,0,1,111.3,114.7Zm11.9-39.8a130.953,130.953,0,0,0-30.3-55.6,84.962,84.962,0,0,1,55-20.7h1.2a85.443,85.443,0,0,1,84.2,76.3Z"/>
    </g>
  </g>
</svg>
