<svg xmlns="http://www.w3.org/2000/svg" width="438.856" height="393.914" viewBox="0 0 438.856 393.914">
  <path id="supermarket" d="M436.7,95.109a9.132,9.132,0,0,0-6.988-3.254H86.953L73.187,18.977a9.834,9.834,0,0,0-.23-.961A24.384,24.384,0,0,0,49.656.43H9.144a9.143,9.143,0,1,0,0,18.285H49.656a6.146,6.146,0,0,1,5.672,4.238L115.3,340.414a9.138,9.138,0,0,0,8.98,7.449h37.867a28.394,28.394,0,0,0-6.723,18.285c0,15.543,12.3,28.2,27.426,28.2s27.43-12.652,27.43-28.2a28.394,28.394,0,0,0-6.723-18.285H308.437a28.394,28.394,0,0,0-6.723,18.285c0,15.543,12.3,28.2,27.43,28.2s27.426-12.652,27.426-28.2a28.394,28.394,0,0,0-6.723-18.285H384a9.145,9.145,0,0,0,0-18.289H131.859L124.952,293H398.19a9.142,9.142,0,0,0,9.008-7.59l31.523-182.859a9.135,9.135,0,0,0-2.02-7.445ZM329.144,356.234c5.039,0,9.141,4.449,9.141,9.914s-4.1,9.91-9.141,9.91S320,371.609,320,366.148,324.1,356.234,329.144,356.234Zm-146.289,0c5.043,0,9.145,4.449,9.145,9.914s-4.1,9.91-9.145,9.91-9.141-4.449-9.141-9.91S177.816,356.234,182.855,356.234ZM164.57,274.719H121.507L112.91,229h51.66Zm0-64h-55.1l-6.879-36.574H164.57Zm0-54.859H99.152l-8.594-45.715H164.57Zm82.285,118.863h-64V229h64Zm0-64h-64V174.14h64Zm0-54.859h-64V110.14h64Zm82.289,118.863h-64V229h64Zm0-64h-64V174.14h64Zm0-54.859h-64V110.14h64Zm61.348,118.863H347.429V229h50.941Zm11.031-64H347.429V174.14h60.4Zm9.457-54.859H347.429V110.14h71.434Zm0,0" transform="translate(0 -0.43)"/>
</svg>
